<?xml version="1.0" encoding="UTF-8" standalone="no"?>
<!DOCTYPE svg PUBLIC "-//W3C//DTD SVG 1.1//EN" "http://www.w3.org/Graphics/SVG/1.1/DTD/svg11.dtd">
<svg version="1.1" xmlns="http://www.w3.org/2000/svg" xmlns:xlink="http://www.w3.org/1999/xlink" preserveAspectRatio="xMidYMid meet" viewBox="83.93694893751936 98.16893739529627 446.9199010691477 412.7623215984774" width="441.92" height="408.76"><defs><path d="M84.94 99.17L526.86 107.17L526.86 507.93L84.94 507.93L84.94 99.17Z" id="e1YkdpLmUY"></path><path d="M172.61 240.69C163.09 238.93 153.32 239.19 143.91 241.44C141 242.14 146.65 240.78 143.77 241.47C134.44 243.71 126.16 249.06 120.3 256.65C118.01 259.62 121.14 255.57 119.08 258.23C112.37 266.93 107.91 277.14 106.1 287.98C105.39 292.2 105.24 293.08 104.34 298.48C103.17 305.43 103.76 312.56 106.05 319.23C107.28 322.82 106.02 319.13 106.88 321.65C110.24 331.43 118.02 339.05 127.87 342.21C130.66 343.11 127.27 342.02 131.03 343.22C138.05 345.47 145.6 345.51 152.65 343.33C154.38 342.79 150.61 343.96 152.8 343.28C158.32 341.57 163.13 338.12 166.51 333.45C167.6 331.95 166 334.16 167.18 332.53C170.13 328.46 170.75 323.14 168.8 318.5C167.77 316.03 168.89 318.7 168.13 316.88C165.4 310.38 159.05 306.15 152 306.15C151.78 306.15 151.25 306.15 150.39 306.15C153.21 308.72 154.97 310.33 155.68 310.97C160.16 315.06 160.72 321.91 156.96 326.67C155.8 328.14 157.71 325.72 156.23 327.59C153.06 331.61 148.14 333.85 143.03 333.62C139.83 333.47 142.36 333.59 140.16 333.49C131.97 333.11 124.54 328.59 120.44 321.49C118.17 317.56 120.73 321.99 119.16 319.27C112.89 308.4 112.55 295.09 118.25 283.92C120.47 279.57 119.03 282.4 121.51 277.53C126.38 268.01 135.89 261.74 146.57 261.03C150.92 260.74 143.14 261.25 146.59 261.03C160.79 260.08 174.98 263.09 187.58 269.71C192.91 272.51 194.67 273.43 201.26 276.89C209.8 281.38 217.09 287.92 222.49 295.91C223.6 297.56 220.65 293.18 222.24 295.55C226.06 301.2 228.36 307.74 228.94 314.53C229.06 315.94 229.36 319.47 229.85 325.12C227.72 325.32 226.39 325.44 225.86 325.49C217.02 326.31 209.64 332.55 207.37 341.12C207.25 341.57 206.95 342.69 206.48 344.49C205.98 353.55 205.67 359.21 205.54 361.48C205.18 367.98 202.09 374.03 197.03 378.12C196.24 378.76 194.27 380.35 191.12 382.9C178.3 387.79 170.28 390.84 167.08 392.06C156.58 396.06 148.58 404.79 145.52 415.61C144 420.97 145.6 415.31 144.41 419.53C140.24 434.25 141.71 449.99 148.53 463.69C148.78 464.18 149.4 465.42 150.39 467.41C153.57 461.4 155.57 457.64 156.36 456.13C160.86 447.64 169.55 442.2 179.16 441.87C187.16 441.6 207.17 440.91 239.2 439.82C245.47 442.19 249.4 443.68 250.97 444.28C262.68 448.71 275.29 450.23 287.72 448.7C292.35 448.13 291.44 448.24 297.1 447.55C305.86 446.47 314.67 449.16 321.33 454.96C321.39 455.01 321.53 455.13 321.77 455.34C335.07 451.25 343.38 448.69 346.7 447.67C358.06 444.18 369.88 442.4 381.76 442.4C385.03 442.4 385.23 442.4 390.58 442.4C395.53 442.4 400.4 443.61 404.77 445.92C406.71 446.94 403.71 445.35 405.1 446.09C411.27 449.34 416.63 453.93 420.8 459.51C421.93 461.03 424.75 464.81 429.27 470.86C429.84 469.52 430.2 468.68 430.35 468.34C438.35 449.59 441.81 429.21 440.47 408.87C440.43 408.28 440.33 406.81 440.18 404.46C455.36 405.14 464.86 405.57 468.65 405.74C487.17 406.57 505.12 399.27 517.8 385.75C517.94 385.6 518.29 385.23 518.86 384.63C517.51 384.63 516.66 384.63 516.33 384.63C505.04 384.63 494.18 380.29 486 372.5C485.47 372 484.15 370.74 482.03 368.72C491.12 362.77 497.95 356.16 502.53 348.89C507.11 341.63 509.43 333.7 509.51 325.12L476.79 307.87C477.3 306.22 477.62 305.18 477.75 304.77C484.18 283.92 483.14 261.49 474.8 241.33C472.57 235.95 467 222.48 458.09 200.94C451.18 213.98 446.86 222.13 445.13 225.39C439.81 235.42 432.4 244.19 423.4 251.11C420.53 253.32 425.36 249.61 422.43 251.86C413.75 258.53 403.05 262.01 392.11 261.72C375.86 261.3 388.57 261.63 383.45 261.5C335.19 260.22 286.92 263.9 239.4 272.48C239.38 272.49 239.31 272.5 239.2 272.52C224.63 263.31 215.53 257.55 211.89 255.25C201.11 248.43 189.12 243.73 176.58 241.42C172.9 240.74 177.2 241.53 172.61 240.69Z" id="b3fE4g08K"></path><path d="M176.47 387.36C168.93 389.39 162.05 393.35 156.51 398.85C154.58 400.77 156.21 399.14 154.03 401.31C149.33 405.97 146.07 411.87 144.63 418.32C143.47 423.48 144.13 420.54 143.45 423.57C140.47 436.89 142.1 450.83 148.09 463.09C148.42 463.78 149.26 465.49 150.59 468.22C152.64 463.39 153.91 460.36 154.43 459.16C157.84 451.09 164.82 445.08 173.31 442.92C173.68 442.82 174.61 442.58 176.09 442.21L241.09 439.99C241.09 436.12 241.09 433.7 241.09 432.73C241.09 424.36 239.56 416.06 236.57 408.23C235.48 405.36 236.52 408.1 235.38 405.11C232.6 397.83 227.44 391.71 220.73 387.74C217.91 386.07 210.87 381.9 199.59 375.23C199.38 375.41 199.24 375.52 199.19 375.57C192.61 381.08 184.9 385.09 176.62 387.32C174.29 387.95 179.01 386.68 176.47 387.36Z" id="b2UbIsasNU"></path><path d="M209.91 383.38C209.91 383.38 209.91 383.38 209.91 383.38C206.92 383.38 204.46 381.03 204.32 378.04C204.21 375.57 204.25 376.48 204.17 374.76C204.17 374.76 203.76 356.65 203.76 356.65C203.76 354.53 203.76 354.45 203.76 351.63C203.76 347.95 204.42 344.3 205.71 340.85C206.77 338.02 206.22 339.49 206.84 337.85C209.41 330.96 215.52 326 222.8 324.9C223.66 324.77 225.81 324.44 229.26 323.92C237.58 323.92 242.78 323.92 244.86 323.92C251.54 323.92 256.89 329.44 256.68 336.12C256.62 337.88 256.49 342.3 256.26 349.38C256.31 349.36 256.33 349.35 256.35 349.35C261.16 347.57 266.42 347.41 271.34 348.88C271.56 348.94 272.12 349.11 273.01 349.38C273.01 342.33 273.01 337.93 273.01 336.17C273.01 329.4 278.5 323.92 285.26 323.92C300.68 323.92 333.69 323.92 348.86 323.92C356.31 323.92 362.35 329.95 362.35 337.4C362.35 346.6 362.35 362.11 362.35 371.66C362.35 378.14 357.1 383.38 350.63 383.38C335.31 383.38 301.05 383.38 285.73 383.38C279.18 383.38 273.78 378.22 273.48 371.68C273.42 370.29 273.26 366.82 273.01 361.28C272.11 361.04 271.55 360.88 271.32 360.82C266.39 359.5 261.18 359.65 256.33 361.26C256.32 361.26 256.3 361.27 256.26 361.28C256.26 367.95 256.26 372.13 256.26 373.79C256.26 379.09 251.97 383.38 246.68 383.38C240.42 383.38 227.02 383.38 219.71 383.38C219.71 383.38 211.08 383.38 211.08 383.38C210.93 383.38 210.54 383.38 209.91 383.38Z" id="a3jPO4EbUF"></path><path d="M343.71 375.25C348.51 375.25 352.4 371.36 352.4 366.56C352.4 359.87 352.4 348.61 352.4 341.95C352.4 337.08 348.45 333.13 343.58 333.13C331.4 333.13 303.17 333.13 290.86 333.13C286.35 333.13 282.7 336.79 282.7 341.3C282.7 348.09 282.7 359.35 282.7 365.9C282.7 371.06 286.88 375.25 292.04 375.25C304.11 375.25 331.51 375.25 343.71 375.25Z" id="cjvAcSyB"></path><path d="M246.51 374.12C247.67 374.12 248.61 373.18 248.61 372.02C248.61 364.02 248.61 344.35 248.61 336.91C248.61 334.2 246.42 332.01 243.72 332.01C236.96 332.01 231.57 332.01 227.31 332.01C217.7 332.01 209.91 339.8 209.91 349.41C209.91 354.35 209.91 360.6 209.91 367.75C209.91 371.27 212.77 374.12 216.29 374.12C222.75 374.12 239.19 374.12 246.51 374.12Z" id="b2ZU8mxVrb"></path></defs><g><g></g><g><g><filter id="shadow16634334" x="85.76" y="182.94" width="461.1" height="306.92" filterUnits="userSpaceOnUse" primitiveUnits="userSpaceOnUse"><feFlood></feFlood><feComposite in2="SourceAlpha" operator="in"></feComposite><feGaussianBlur stdDeviation="1"></feGaussianBlur><feOffset dx="10" dy="1" result="afterOffset"></feOffset><feFlood flood-color="#fb7905" flood-opacity="0.46"></feFlood><feComposite in2="afterOffset" operator="in"></feComposite><feMorphology operator="dilate" radius="1"></feMorphology><feComposite in2="SourceAlpha" operator="out"></feComposite></filter><path d="M172.61 240.69C163.09 238.93 153.32 239.19 143.91 241.44C141 242.14 146.65 240.78 143.77 241.47C134.44 243.71 126.16 249.06 120.3 256.65C118.01 259.62 121.14 255.57 119.08 258.23C112.37 266.93 107.91 277.14 106.1 287.98C105.39 292.2 105.24 293.08 104.34 298.48C103.17 305.43 103.76 312.56 106.05 319.23C107.28 322.82 106.02 319.13 106.88 321.65C110.24 331.43 118.02 339.05 127.87 342.21C130.66 343.11 127.27 342.02 131.03 343.22C138.05 345.47 145.6 345.51 152.65 343.33C154.38 342.79 150.61 343.96 152.8 343.28C158.32 341.57 163.13 338.12 166.51 333.45C167.6 331.95 166 334.16 167.18 332.53C170.13 328.46 170.75 323.14 168.8 318.5C167.77 316.03 168.89 318.7 168.13 316.88C165.4 310.38 159.05 306.15 152 306.15C151.78 306.15 151.25 306.15 150.39 306.15C153.21 308.72 154.97 310.33 155.68 310.97C160.16 315.06 160.72 321.91 156.96 326.67C155.8 328.14 157.71 325.72 156.23 327.59C153.06 331.61 148.14 333.85 143.03 333.62C139.83 333.47 142.36 333.59 140.16 333.49C131.97 333.11 124.54 328.59 120.44 321.49C118.17 317.56 120.73 321.99 119.16 319.27C112.89 308.4 112.55 295.09 118.25 283.92C120.47 279.57 119.03 282.4 121.51 277.53C126.38 268.01 135.89 261.74 146.57 261.03C150.92 260.74 143.14 261.25 146.59 261.03C160.79 260.08 174.98 263.09 187.58 269.71C192.91 272.51 194.67 273.43 201.26 276.89C209.8 281.38 217.09 287.92 222.49 295.91C223.6 297.56 220.65 293.18 222.24 295.55C226.06 301.2 228.36 307.74 228.94 314.53C229.06 315.94 229.36 319.47 229.85 325.12C227.72 325.32 226.39 325.44 225.86 325.49C217.02 326.31 209.64 332.55 207.37 341.12C207.25 341.57 206.95 342.69 206.48 344.49C205.98 353.55 205.67 359.21 205.54 361.48C205.18 367.98 202.09 374.03 197.03 378.12C196.24 378.76 194.27 380.35 191.12 382.9C178.3 387.79 170.28 390.84 167.08 392.06C156.58 396.06 148.58 404.79 145.52 415.61C144 420.97 145.6 415.31 144.41 419.53C140.24 434.25 141.71 449.99 148.53 463.69C148.78 464.18 149.4 465.42 150.39 467.41C153.57 461.4 155.57 457.64 156.36 456.13C160.86 447.64 169.55 442.2 179.16 441.87C187.16 441.6 207.17 440.91 239.2 439.82C245.47 442.19 249.4 443.68 250.97 444.28C262.68 448.71 275.29 450.23 287.72 448.7C292.35 448.13 291.44 448.24 297.1 447.55C305.86 446.47 314.67 449.16 321.33 454.96C321.39 455.01 321.53 455.13 321.77 455.34C335.07 451.25 343.38 448.69 346.7 447.67C358.06 444.18 369.88 442.4 381.76 442.4C385.03 442.4 385.23 442.4 390.58 442.4C395.53 442.4 400.4 443.61 404.77 445.92C406.71 446.94 403.71 445.35 405.1 446.09C411.27 449.34 416.63 453.93 420.8 459.51C421.93 461.03 424.75 464.81 429.27 470.86C429.84 469.52 430.2 468.68 430.35 468.34C438.35 449.59 441.81 429.21 440.47 408.87C440.43 408.28 440.33 406.81 440.18 404.46C455.36 405.14 464.86 405.57 468.65 405.74C487.17 406.57 505.12 399.27 517.8 385.75C517.94 385.6 518.29 385.23 518.86 384.63C517.51 384.63 516.66 384.63 516.33 384.63C505.04 384.63 494.18 380.29 486 372.5C485.47 372 484.15 370.74 482.03 368.72C491.12 362.77 497.95 356.16 502.53 348.89C507.11 341.63 509.43 333.7 509.51 325.12L476.79 307.87C477.3 306.22 477.62 305.18 477.75 304.77C484.18 283.92 483.14 261.49 474.8 241.33C472.57 235.95 467 222.48 458.09 200.94C451.18 213.98 446.86 222.13 445.13 225.39C439.81 235.42 432.4 244.19 423.4 251.11C420.53 253.32 425.36 249.61 422.43 251.86C413.75 258.53 403.05 262.01 392.11 261.72C375.86 261.3 388.57 261.63 383.45 261.5C335.19 260.22 286.92 263.9 239.4 272.48C239.38 272.49 239.31 272.5 239.2 272.52C224.63 263.31 215.53 257.55 211.89 255.25C201.11 248.43 189.12 243.73 176.58 241.42C172.9 240.74 177.2 241.53 172.61 240.69Z" id="a19293W8Yu" fill="white" fill-opacity="1" filter="url(#shadow16634334)"></path></g><use xlink:href="#b3fE4g08K" opacity="1" fill="#141718" fill-opacity="1"></use><g><use xlink:href="#b3fE4g08K" opacity="1" fill-opacity="0" stroke="#000000" stroke-width="1" stroke-opacity="1"></use></g></g><g><use xlink:href="#b2UbIsasNU" opacity="1" fill="#383937" fill-opacity="1"></use><g><use xlink:href="#b2UbIsasNU" opacity="1" fill-opacity="0" stroke="#000000" stroke-width="1" stroke-opacity="1"></use></g></g><g><use xlink:href="#a3jPO4EbUF" opacity="1" fill="#3d3d3c" fill-opacity="1"></use><g><use xlink:href="#a3jPO4EbUF" opacity="1" fill-opacity="0" stroke="#000000" stroke-width="1" stroke-opacity="1"></use></g></g><g><use xlink:href="#cjvAcSyB" opacity="1" fill="#cd8b3e" fill-opacity="1"></use><g><use xlink:href="#cjvAcSyB" opacity="1" fill-opacity="0" stroke="#000000" stroke-width="1" stroke-opacity="1"></use></g></g><g><use xlink:href="#b2ZU8mxVrb" opacity="1" fill="#cd8b3e" fill-opacity="1"></use><g><use xlink:href="#b2ZU8mxVrb" opacity="1" fill-opacity="0" stroke="#000000" stroke-width="1" stroke-opacity="1"></use></g></g></g></svg>